# xmcd CD database file
#
# Track frame offsets:
#	150
#	14081
#	29630
#	45219
#	61961
#	79064
#	97022
#	102420
#	117414
#	136798
#	156247
#	170858
#	187165
#	190674
#	210237
#	227214
#	250234
#
# Disc length: 3431 seconds
#
# Revision: 1
# Processed by: cddbd v1.5.2PL0 Copyright (c) Steve Scherf et al.
# Submitted via: CDex 1.51
#
DISCID=ed0d6511
DTITLE=Curse Ov Dialect - Wooden Tongues
DYEAR=2006
DGENRE=Hip-Hop
TTITLE0=Renegades
TTITLE1=Saturday Night
TTITLE2=Word Up Forever
TTITLE3=Forget
TTITLE4=Jokes On Me
TTITLE5=Take Me To The Arab World
TTITLE6=The Potato Master
TTITLE7=Bird Cage Alert
TTITLE8=Bury Me Slowly
TTITLE9=Broken Feathers
TTITLE10=Mr Miscellaneous
TTITLE11=Sticks And Stones
TTITLE12=Ropungan
TTITLE13=Strawberries
TTITLE14=Stop Sarisis
TTITLE15=Letter To Athens
TTITLE16=Previous Decision
EXTD=YEAR: 2006
EXTT0=
EXTT1=
EXTT2=
EXTT3=
EXTT4=
EXTT5=
EXTT6=
EXTT7=
EXTT8=
EXTT9=
EXTT10=
EXTT11=
EXTT12=
EXTT13=
EXTT14=
EXTT15=
EXTT16=
PLAYORDER=
